<svg version="1.1" xmlns="http://www.w3.org/2000/svg" style="display: block;" viewBox="295 162 1583 1583" width="1080" height="1080" preserveAspectRatio="none">
<path transform="translate(0,0)" fill="#09090b" d="M 933.652 454.601 C 935.729 454.082 934.719 454.259 937.462 455.662 C 941.138 466.59 938.919 587.51 939 608.356 C 955.843 611.41 972.324 613.794 989.007 617.754 C 1138.53 653.243 1269.09 753.366 1344.37 887.085 C 1366.54 926.444 1382.46 967.198 1396.39 1010.42 C 1374.63 1032.04 1353.09 1053.88 1331.75 1075.92 C 1321.69 1086.3 1306.83 1104.16 1295.32 1111.81 C 1275.71 1092.37 1245.61 1064.7 1229.26 1042.97 C 1226.87 1039.78 1220.35 1017.95 1217.87 1011.99 C 1178.02 913.654 1099.94 835.714 1001.53 796.036 C 992.977 792.587 945.927 776.79 939.628 779.452 C 938.049 782.476 938.883 1382.61 938.959 1435.44 C 886.623 1433.34 825.361 1435.39 772.049 1434.95 C 770.901 1388.85 771.83 1338.99 771.828 1292.66 L 771.833 1024.5 L 771.837 855.39 L 771.918 805.91 C 771.935 798 772.353 785.408 771.338 777.857 C 767.655 779.867 756.835 780.895 751.589 782.482 C 745.034 784.466 738.708 786.467 732.163 788.645 C 696.842 800.405 663.4 817.196 632.87 838.499 C 548.249 896.93 492.071 987.601 471.58 1087.85 C 454.159 1173.08 468.315 1294.52 518.952 1367.19 C 510.311 1373.71 491.551 1383.55 481.701 1389.1 C 462.306 1400.25 442.835 1411.26 423.29 1422.15 C 406.656 1431.33 387.021 1441.41 371.6 1451.99 C 364.437 1443.33 357.245 1427.58 352.079 1417.18 C 320.84 1354.3 304.986 1285.07 297.037 1215.65 C 295.275 1197.89 295.953 1179.74 295.791 1161.91 C 294.159 982.073 386.082 808.508 532.074 704.486 C 596.502 658.579 692.666 617.36 771.855 608.734 L 771.784 507.349 C 771.779 496.363 771.097 466.637 772.75 457.24 C 778.665 452.809 914.497 455.496 933.652 454.601 z"/>
<path transform="translate(0,0)" fill="rgb(226,29,42)" d="M 1760.86 744.618 C 1764.85 746.182 1869.66 852.194 1878.1 860.894 L 1499.47 1247.47 C 1446.67 1301.24 1394.19 1355.81 1341.2 1409.43 C 1326.86 1423.94 1311.9 1439.63 1296.82 1453.2 C 1255.66 1414.45 1216.41 1371.78 1175.84 1332.26 C 1160.65 1317.46 1143.61 1301.2 1129.77 1285.4 C 1104.37 1258.58 1076.57 1232.7 1051.08 1205.91 C 1042.86 1197.27 1017.36 1173.73 1012.62 1164.9 C 1015.76 1159.32 1036.46 1139.6 1042.62 1133.43 L 1092.6 1082.87 C 1103.5 1071.86 1116.01 1056.65 1127.6 1047.47 C 1143.2 1060.84 1164.96 1084.02 1180 1099.22 L 1257.44 1177.03 C 1270.33 1190.08 1282.24 1203.27 1295.51 1216.14 C 1304.91 1205.37 1324.51 1187.67 1335.49 1176.31 L 1472.02 1037.66 L 1760.86 744.618 z"/>
</svg>